<svg version="1.1" id="Layer_1" xmlns="http://www.w3.org/2000/svg" xmlns:xlink="http://www.w3.org/1999/xlink" x="0px" y="0px"
	 width="100%" viewBox="0 0 512 512" enable-background="new 0 0 512 512" xml:space="preserve">
<path fill="#000000" opacity="1.000000" stroke="none" 
	d="
M173.591385,309.415710 
	C169.459076,329.186310 166.527420,348.661926 166.136887,368.509735 
	C165.986679,376.143768 164.792908,383.746643 166.011887,391.398499 
	C166.441605,394.095947 165.161728,395.481171 162.342575,395.346313 
	C161.013031,395.282684 159.677460,395.349487 158.344620,395.349731 
	C114.359840,395.357544 70.375061,395.364502 26.390276,395.371490 
	C23.944906,395.371857 21.499537,395.371521 18.885508,395.371521 
	C17.979568,386.451752 19.777670,378.445465 21.064079,370.513306 
	C25.305784,344.358337 32.402489,318.974884 42.658447,294.483917 
	C56.219185,262.101257 74.281868,232.540771 97.742455,206.402100 
	C121.417664,180.024307 148.551468,157.983490 180.146744,141.602631 
	C208.732849,126.781906 238.797989,116.761742 270.783295,112.519905 
	C284.321381,110.724510 297.881226,109.335915 311.522949,109.741219 
	C334.999664,110.438744 358.148041,113.673805 380.817322,119.962029 
	C381.830536,120.243095 383.156830,120.285622 383.921967,121.776764 
	C381.053894,123.161064 378.404877,121.511002 375.749634,121.399422 
	C350.970367,120.358124 327.026550,124.041763 304.167603,133.919250 
	C262.228363,152.041443 231.486237,182.519562 208.257339,221.175903 
	C191.835968,248.503525 180.570297,277.901703 173.591385,309.415710 
z"/>
<path fill="#000000" opacity="1.000000" stroke="none" 
	d="
M301.379150,245.452484 
	C300.748688,257.337158 299.013580,268.710846 299.154205,280.212036 
	C299.173523,281.793945 299.048187,283.919983 296.789032,283.969208 
	C294.209045,284.025330 294.677948,281.767609 294.777374,280.261749 
	C297.008484,246.472977 299.653198,212.740616 310.724274,180.367325 
	C313.368378,172.635590 316.426971,165.073181 321.724182,158.679398 
	C328.954651,149.952133 337.935852,150.179810 344.656891,159.184998 
	C353.537811,171.084076 357.153381,185.113113 360.774078,199.119110 
	C363.682404,210.369446 365.274231,221.876602 367.112854,233.333908 
	C367.805511,237.650177 364.982025,237.385315 362.228516,237.384598 
	C345.077454,237.380157 327.926361,237.379257 310.775299,237.380524 
	C303.171570,237.381088 303.171570,237.384628 301.379150,245.452484 
z"/>
<path fill="#000000" opacity="1.000000" stroke="none" 
	d="
M202.069031,308.431824 
	C181.927048,309.129944 185.602280,306.346863 181.243423,325.488007 
	C176.838348,344.832123 175.096313,364.510651 175.343857,384.362366 
	C175.364487,386.015717 176.183441,388.023315 174.416199,389.304565 
	C173.141739,389.371918 172.791321,388.627380 172.751266,387.752716 
	C171.147141,352.735565 175.330811,318.743469 190.998917,286.870361 
	C195.138535,278.449310 200.589752,270.946289 207.754913,264.714752 
	C221.657990,252.623276 239.085831,252.943253 252.002792,266.117279 
	C262.864319,277.194946 267.590637,291.403564 271.138397,306.079193 
	C271.242737,306.510681 270.950714,307.037994 270.641357,308.430664 
	C248.058365,308.430664 225.308243,308.430664 202.069031,308.431824 
z"/>
<path fill="#000000" opacity="1.000000" stroke="none" 
	d="
M387.421631,187.635468 
	C390.505981,175.394287 394.066711,163.828476 402.873352,154.752747 
	C409.611542,147.808670 418.540649,147.538147 425.389252,154.403214 
	C435.604462,164.643051 439.112183,177.888779 441.870331,191.388626 
	C439.426849,192.791153 437.215240,192.326569 435.096130,192.332794 
	C421.619598,192.372345 408.142487,192.399353 394.666565,192.298080 
	C391.397278,192.273529 389.452942,192.874573 389.061768,196.772507 
	C388.583893,201.533783 387.312897,206.212051 387.306335,211.056351 
	C387.304199,212.636200 387.487610,214.465256 384.166016,215.236404 
	C383.165558,205.712952 385.680115,196.911118 387.421631,187.635468 
z"/>
<path fill="#000000" opacity="1.000000" stroke="none" 
	d="
M211.671860,344.980957 
	C211.677963,340.004761 211.686920,335.524078 211.690887,331.043365 
	C211.692947,328.706329 211.999268,326.759827 215.103119,326.711792 
	C218.384827,326.660980 218.315689,328.800720 218.345596,331.045441 
	C218.365143,332.512726 218.467636,333.978882 218.535675,335.506470 
	C219.190475,335.676483 219.651794,335.924469 220.091202,335.890350 
	C224.059265,335.582336 228.485886,334.581940 230.784958,338.947723 
	C233.301865,343.727173 233.117050,348.880493 230.694366,353.780212 
	C229.487335,356.221313 227.360291,357.270905 224.609619,357.365631 
	C221.264694,357.480865 218.038406,356.060913 214.552383,357.154785 
	C212.634216,357.756653 211.776779,355.795227 211.739807,353.939056 
	C211.683609,351.118835 211.691788,348.297363 211.671860,344.980957 
M223.733261,351.077728 
	C224.805008,350.189758 225.493347,349.073486 225.572998,347.671570 
	C225.685745,345.687378 225.979828,343.623016 224.106537,342.170502 
	C222.875763,341.216156 221.643967,341.406982 220.434280,342.254730 
	C218.368591,343.702393 218.027206,345.844391 218.464630,348.035828 
	C218.939957,350.417084 220.443573,351.820801 223.733261,351.077728 
z"/>
<path fill="#000000" opacity="1.000000" stroke="none" 
	d="
M327.012329,243.527283 
	C332.118408,244.479996 334.242065,247.629929 334.202606,252.068817 
	C334.164520,256.346405 332.359802,260.108154 327.882965,261.127777 
	C322.972961,262.246033 319.135193,263.569550 320.111694,269.842529 
	C320.378571,271.556915 318.749908,272.312469 317.024506,272.242340 
	C315.335114,272.173676 313.926575,271.421722 313.899536,269.689056 
	C313.775391,261.731689 313.732758,253.770309 313.860382,245.813568 
	C313.895294,243.635910 315.681396,242.769440 317.725189,242.786240 
	C320.693878,242.810623 323.707275,242.338455 327.012329,243.527283 
M326.750244,252.518143 
	C326.575012,249.943085 325.131134,248.537796 322.618866,248.555832 
	C320.643372,248.570023 320.298126,250.177628 320.394684,251.755386 
	C320.497986,253.443069 319.557526,255.778214 321.983154,256.406921 
	C324.401642,257.033752 326.125732,255.819992 326.750244,252.518143 
z"/>
<path fill="#000000" opacity="1.000000" stroke="none" 
	d="
M323.363556,357.351532 
	C316.687378,355.433594 315.348969,353.204041 315.651428,345.219757 
	C315.834625,340.384857 318.776093,336.577026 322.957977,335.761169 
	C329.130188,334.557068 334.011200,336.300232 336.056732,340.439178 
	C338.398010,345.176483 337.283356,352.209564 333.787048,355.291443 
	C330.828094,357.899567 327.253174,357.273499 323.363556,357.351532 
M328.698792,351.000977 
	C329.252808,349.997223 330.037567,349.052795 330.313965,347.977722 
	C330.931976,345.573761 330.432495,343.279968 328.331604,341.795258 
	C326.636505,340.597260 324.757446,340.932404 323.470703,342.560944 
	C321.651917,344.862793 321.783813,347.684418 322.875793,350.067322 
	C323.811371,352.109009 325.837769,353.214905 328.698792,351.000977 
z"/>
<path fill="#000000" opacity="1.000000" stroke="none" 
	d="
M383.396179,270.491943 
	C377.973419,273.098022 372.609253,273.926544 368.192688,269.901917 
	C364.296509,266.351471 364.219086,261.384399 365.869873,256.507385 
	C367.407349,251.965103 372.043823,249.337311 376.965912,250.134995 
	C382.226837,250.987579 384.913116,253.947235 385.215057,259.169250 
	C385.365265,261.767273 384.391571,263.222290 381.593353,263.393860 
	C378.686554,263.572052 375.673859,262.779053 372.350159,264.166138 
	C375.567719,269.906158 379.904358,265.942230 383.470520,265.893463 
	C384.629242,267.395996 384.416260,268.789490 383.396179,270.491943 
M375.365082,255.185181 
	C373.853394,255.415665 372.496521,255.798035 372.744019,257.985657 
	C374.547638,258.716492 376.527191,259.500366 377.823029,257.510345 
	C378.559296,256.379608 377.204254,255.580032 375.365082,255.185181 
z"/>
<path fill="#000000" opacity="1.000000" stroke="none" 
	d="
M247.474289,348.783081 
	C246.191818,348.812622 245.001205,348.361755 244.615845,349.688080 
	C244.278946,350.847748 245.065247,351.565216 246.003860,352.020264 
	C248.075607,353.024689 250.174652,352.723785 252.302734,352.118927 
	C253.721466,351.715698 255.375229,351.171661 256.019104,353.211121 
	C256.568329,354.950775 255.543640,355.982422 254.043381,356.717590 
	C250.067459,358.666016 241.643234,357.234497 239.233246,354.162231 
	C236.140732,350.219849 236.482498,342.196991 239.908051,338.321167 
	C243.160187,334.641541 251.030243,334.104645 254.438858,337.493408 
	C256.812256,339.852997 257.860229,342.958618 257.093811,346.186401 
	C256.260132,349.697388 253.013397,348.013885 250.781372,348.461365 
	C249.809601,348.656158 248.804993,348.687195 247.474289,348.783081 
M244.849365,342.454437 
	C246.622192,344.591522 248.322739,343.669250 250.397461,342.460693 
	C248.548553,339.730011 246.852356,339.626221 244.849365,342.454437 
z"/>
<path fill="#000000" opacity="1.000000" stroke="none" 
	d="
M452.615967,266.876892 
	C453.609924,269.049530 452.919800,270.453827 451.167969,271.218384 
	C447.004700,273.035309 442.729645,273.056885 438.681519,271.055695 
	C434.734222,269.104370 433.917694,265.092438 433.904602,261.296356 
	C433.876312,253.100647 440.636047,248.141968 447.939148,250.608322 
	C451.896423,251.944748 454.602325,256.183868 454.194183,260.296722 
	C453.963348,262.622894 452.532959,263.347717 450.450043,263.343475 
	C447.488434,263.337463 444.526825,263.341949 441.158997,263.341949 
	C441.842590,267.318695 444.295868,267.791595 447.027161,267.407196 
	C448.796326,267.158203 450.456329,266.163727 452.615967,266.876892 
M446.762512,256.211090 
	C444.505829,254.629929 442.685944,254.591217 441.335419,257.907623 
	C443.683289,258.371429 445.785461,260.074738 446.762512,256.211090 
z"/>
<path fill="#000000" opacity="1.000000" stroke="none" 
	d="
M404.664276,265.139496 
	C404.598114,263.027954 404.704071,261.341461 404.418121,259.724182 
	C404.125946,258.071533 403.452087,256.325684 401.300201,256.531403 
	C399.417542,256.711395 398.349182,258.091522 398.220032,259.910706 
	C398.020477,262.721222 398.079742,265.549042 397.946106,268.365601 
	C397.841400,270.571930 397.075500,272.337891 394.430389,272.208344 
	C391.916565,272.085236 391.688507,270.216339 391.680756,268.293182 
	C391.662079,263.645538 391.652069,258.997559 391.686096,254.350067 
	C391.698303,252.684235 391.690186,250.511978 394.047546,250.863708 
	C397.263489,251.343521 400.200653,250.288254 403.252991,250.077026 
	C406.767883,249.833817 409.594910,251.448853 410.374268,255.530075 
	C411.095337,259.305786 411.386719,263.071564 411.233459,266.895691 
	C411.131775,269.433380 411.289246,272.226288 407.637451,272.211304 
	C403.957581,272.196198 404.876770,269.247986 404.658844,267.088013 
	C404.609131,266.595520 404.659882,266.092865 404.664276,265.139496 
z"/>
<path fill="#000000" opacity="1.000000" stroke="none" 
	d="
M339.650085,258.977875 
	C339.671326,256.837982 339.689636,255.175568 339.714417,253.513245 
	C339.746704,251.344513 341.034241,250.723663 342.982605,250.733414 
	C344.911499,250.743057 346.233398,251.318115 346.259155,253.507462 
	C346.294373,256.500214 346.315796,259.493286 346.377045,262.485504 
	C346.412140,264.199127 346.587860,266.210144 348.668732,266.314301 
	C350.887329,266.425354 352.407196,264.878693 352.563293,262.591827 
	C352.755432,259.776031 352.708466,256.941162 352.694122,254.114883 
	C352.682953,251.906189 353.537689,250.740723 355.912903,250.711090 
	C358.207001,250.682449 359.313812,251.600861 359.302765,253.917740 
	C359.278992,258.906097 359.307556,263.894714 359.289124,268.883148 
	C359.282196,270.757782 358.266266,272.884338 356.543274,272.084961 
	C353.246307,270.555359 350.441742,272.269562 347.430298,272.371460 
	C342.932098,272.523621 340.712372,269.874939 339.899719,265.919128 
	C339.471680,263.835388 339.711700,261.614410 339.650085,258.977875 
z"/>
<path fill="#000000" opacity="1.000000" stroke="none" 
	d="
M406.457764,199.609039 
	C408.215302,204.530701 409.841675,209.071808 411.449890,213.619308 
	C411.988220,215.141602 413.118652,216.903656 410.839111,217.869507 
	C409.080109,218.614822 407.829956,217.795044 406.731262,216.132553 
	C404.131439,212.198578 400.023834,212.153427 397.420807,216.027618 
	C396.461151,217.455917 395.504364,218.497803 393.857086,217.863449 
	C391.919617,217.117355 392.522858,215.366119 392.976929,213.990616 
	C394.540771,209.253494 396.189453,204.543259 397.884064,199.851028 
	C398.549103,198.009613 399.040283,195.967041 401.609039,195.706360 
	C404.332855,195.429916 405.523254,197.024063 406.457764,199.609039 
z"/>
<path fill="#000000" opacity="1.000000" stroke="none" 
	d="
M420.742523,197.665131 
	C424.162659,194.456573 426.627319,195.128662 428.106506,199.080307 
	C429.962555,204.038757 431.672729,209.052307 433.406097,214.055862 
	C433.869659,215.394012 434.908234,216.969482 432.828156,217.859070 
	C431.237183,218.539505 429.987122,217.769989 428.911835,216.541229 
	C425.011902,212.084625 422.577698,212.055679 419.121216,216.506531 
	C418.063049,217.869049 416.893738,218.511948 415.289062,217.795944 
	C413.517029,217.005310 414.254822,215.573944 414.677521,214.377274 
	C416.606934,208.914963 418.599487,203.474960 420.742523,197.665131 
M423.374146,203.718155 
	C423.119446,204.312653 422.811768,204.890793 422.622192,205.505386 
	C422.329010,206.455765 422.162384,207.516678 423.091614,208.150146 
	C423.512360,208.436951 424.442017,208.450790 424.861511,208.170471 
	C425.833954,207.520691 425.655304,206.430634 425.172424,205.565262 
	C424.747955,204.804581 425.110565,203.489105 423.374146,203.718155 
z"/>
<path fill="#000000" opacity="1.000000" stroke="none" 
	d="
M422.830383,245.767548 
	C425.814392,247.275421 425.915527,251.205963 429.719421,251.793411 
	C430.812622,251.962265 430.071625,254.519394 428.352570,255.653778 
	C423.781067,258.670441 424.018829,264.137360 428.787750,266.864319 
	C429.840576,267.466339 430.213013,268.171326 430.139832,269.226440 
	C430.038696,270.683777 429.310608,271.663361 427.876923,272.173035 
	C423.573395,273.702850 419.324341,271.083313 418.737061,266.361145 
	C418.206543,262.095337 419.753815,257.567352 416.038788,253.744476 
	C414.635254,252.300201 419.585480,246.279129 422.830383,245.767548 
z"/>
<path fill="#000000" opacity="1.000000" stroke="none" 
	d="
M296.458557,354.339783 
	C294.176361,350.118134 294.052979,346.040070 295.365448,341.969299 
	C297.201843,336.273468 303.849457,333.589722 309.188690,336.201050 
	C311.702484,337.430542 311.811218,339.323303 310.829559,341.576996 
	C302.244751,341.916687 300.783417,342.860291 301.394348,347.846893 
	C302.242615,354.770203 307.053680,351.146973 310.453857,350.978760 
	C311.788849,353.397827 311.656433,355.651489 309.184631,356.508026 
	C304.850677,358.009857 300.408112,358.373749 296.458557,354.339783 
z"/>
<path fill="#000000" opacity="1.000000" stroke="none" 
	d="
M484.787720,204.640167 
	C483.593628,207.975540 482.503784,210.930527 481.522034,213.921005 
	C480.827728,216.035889 480.196014,218.056381 477.411194,218.183823 
	C474.585083,218.313156 473.749084,216.303162 473.027161,214.234314 
	C471.388947,209.539551 469.805725,204.824829 468.268616,200.095978 
	C467.769501,198.560425 466.945496,196.694473 469.333923,195.998962 
	C471.239807,195.443954 472.529205,196.519318 473.159393,198.297028 
	C474.474487,202.006912 475.733124,205.736832 477.198975,209.992706 
	C479.585754,206.549866 479.979462,203.038177 481.255676,199.888565 
	C482.043854,197.943390 482.421753,195.071854 485.350281,196.029251 
	C488.707489,197.126785 486.061035,199.607147 485.896606,201.459671 
	C485.811493,202.418915 485.272247,203.337814 484.787720,204.640167 
z"/>
<path fill="#000000" opacity="1.000000" stroke="none" 
	d="
M453.530975,205.420013 
	C454.212036,207.300461 454.805176,208.820526 455.720673,211.166641 
	C457.188202,206.624817 458.335205,202.868027 459.619995,199.158936 
	C460.817535,195.701645 461.053864,195.645493 465.497284,196.856033 
	C463.335938,203.276657 461.212006,209.686829 459.006287,216.068741 
	C458.442474,217.699966 457.004883,218.140274 455.388306,218.181732 
	C453.697693,218.225082 452.449982,217.572296 451.880402,215.959961 
	C449.944611,210.480209 448.029633,204.992783 446.160400,199.490036 
	C445.641785,197.963242 445.564362,196.397690 447.607849,195.941803 
	C449.292450,195.566010 450.559174,196.324265 451.131195,197.963287 
	C451.950745,200.311630 452.676941,202.692581 453.530975,205.420013 
z"/>
<path fill="#000000" opacity="1.000000" stroke="none" 
	d="
M204.341156,350.890594 
	C204.329376,352.205078 204.301910,353.035431 204.308426,353.865479 
	C204.325363,356.022919 203.521347,357.306030 201.111938,357.289581 
	C198.817291,357.273987 197.723724,356.188293 197.718567,353.971558 
	C197.701538,346.664551 197.721725,339.357483 197.711365,332.050415 
	C197.708221,329.829041 198.658279,328.756683 200.999680,328.703979 
	C203.764038,328.641815 204.345978,330.161560 204.334030,332.469910 
	C204.303055,338.448547 204.334457,344.427490 204.341156,350.890594 
z"/>
<path fill="#000000" opacity="1.000000" stroke="none" 
	d="
M270.648132,344.303467 
	C270.397888,347.634857 270.289185,350.606628 270.190338,353.578735 
	C270.113525,355.887817 269.242950,357.354218 266.625031,357.282257 
	C264.106049,357.213013 263.691681,355.591034 263.687836,353.597168 
	C263.678558,348.799683 263.688873,344.002167 263.675507,339.204712 
	C263.669678,337.108856 264.324005,335.420349 266.759674,335.820496 
	C269.090424,336.203278 271.329956,335.913208 273.615692,335.711121 
	C275.529633,335.541870 276.899231,336.339813 277.033325,338.399384 
	C277.151917,340.220886 276.649872,341.726807 274.367432,341.700623 
	C272.696167,341.681427 271.568237,342.532104 270.648132,344.303467 
z"/>
<path fill="#000000" opacity="1.000000" stroke="none" 
	d="
M288.246094,354.719116 
	C287.567535,357.707855 285.598083,357.420898 283.824738,357.092499 
	C281.987549,356.752319 281.768158,355.138611 281.760498,353.600922 
	C281.736664,348.807556 281.735260,344.013733 281.774353,339.220490 
	C281.792755,336.961609 282.706207,335.298187 285.225159,335.287872 
	C287.948273,335.276703 288.331635,337.201050 288.322327,339.374420 
	C288.301117,344.333069 288.304199,349.291840 288.246094,354.719116 
z"/>
<path fill="#000000" opacity="1.000000" stroke="none" 
	d="
M245.228088,331.578278 
	C247.183411,328.085510 248.747131,324.492096 253.872772,326.982819 
	C253.417145,329.856323 251.520370,331.747040 249.554092,333.303680 
	C247.863327,334.642242 245.572540,335.633789 245.228088,331.578278 
z"/>
<path fill="#000000" opacity="1.000000" stroke="none" 
	d="
M283.410645,333.329315 
	C281.530579,331.681641 281.054413,329.903961 282.637360,328.389069 
	C283.904785,327.176117 285.807068,327.404999 287.351196,328.058746 
	C288.717224,328.637085 289.162689,329.960358 288.652161,331.394714 
	C287.794983,333.802948 285.895386,333.952759 283.410645,333.329315 
z"/>
<path fill="#000000" opacity="1.000000" stroke="none" 
	d="
M490.073029,211.940735 
	C493.369537,212.502701 493.923065,214.378540 492.663422,216.675415 
	C491.868439,218.124969 490.134460,218.605881 488.872803,217.258591 
	C487.099548,215.365143 487.160828,213.409988 490.073029,211.940735 
z"/>
<path fill="#000000" opacity="1.000000" stroke="none" 
	d="
M441.128479,211.938873 
	C443.901947,213.191833 444.462952,214.988205 442.773071,217.149704 
	C441.783051,218.416031 440.267792,218.405151 439.382202,217.136459 
	C437.919281,215.040726 438.142181,213.097244 441.128479,211.938873 
z"/>
</svg>